<svg id="Layer_1" data-name="Layer 1" xmlns="http://www.w3.org/2000/svg" viewBox="0 0 1000 500"><defs><style>.cls-1{fill:#fff;}</style></defs><title>LOGO White</title><path class="cls-1" d="M119.86,371.41,114,374.85c-10.79,6.35-18.91-.22-19-15.66Q95,334.52,95,309.85c3.34,11.85,6.43,23.78,9.47,35.73a55.1,55.1,0,0,0,11.84,22.34A29.09,29.09,0,0,0,119.86,371.41Z"/><path class="cls-1" d="M175.45,336.51l.52,1.93q-11.79,6.94-23.6,13.86a68.43,68.43,0,0,0-.85-18c-1.27-8.11-2.94-16.17-3.74-24.33a44,44,0,0,1,1-13.61c1.15-5.24,5.24-6.75,8.93-2.93,4.07,4.19,8,9.2,10,14.59C171.09,317.19,172.87,327,175.45,336.51Z"/><path class="cls-1" d="M224.1,225.62c-5-8.62-12.41-10.56-20.78-5.19-4.08,2.61-7.8,5.82-11.66,8.77-14.13,10.77-29.34,12.69-45.53,5.31-8.61-3.92-17-8.4-25.67-12.07a24.28,24.28,0,0,0-11.34-1.82c-6.37.6-11.2,4.24-14.1,10v37.11c.41,1.45.86,2.89,1.31,4.33,4.32,13.65,8.83,27.24,12.74,41,3.09,10.83,4.82,22.05,8.28,32.73,1.92,5.9,5.62,11.5,9.52,16.42a7.65,7.65,0,0,0,3.89,2.79q4.16-2.42,8.29-4.88c1.54-2.73,2.87-5.93,2.82-8.87-.19-10.1-1-20.18-1.93-30.26-.78-8.76-1.62-17.5,1-26.09,3.35-11.19,13.35-14,21.95-6.17,2.12,1.94,4.31,4.22,5.4,6.8,2.94,6.86,6,13.8,7.76,21a180.5,180.5,0,0,1,3.2,20l13.51-7.94,11.8-6.92c2.5-8.12,5.46-16.13,8.52-24.11,5.1-13.23,10.33-26.45,14.43-40C230.75,246.78,230,235.75,224.1,225.62ZM102.72,262c-8.11-9.3-3.62-31.49,8.28-34.59C102.53,237.7,102.15,249.6,102.72,262Z"/><path class="cls-1" d="M314.41,252.73a15.51,15.51,0,0,1-6.3,8q-47.88,28.42-95.92,56.45c.7-1.68,1.42-3.37,2.15-5.05,5.5-12.63,11.48-25.05,17-37.67,4.67-10.66,7.93-21.75,7.36-33.55-.45-9.21-2.92-17.86-8.84-25.18-7.77-9.63-18.4-12.12-29.45-6.47-4.91,2.52-9.39,5.93-13.87,9.23-7.88,5.82-16.27,10-26.34,7.62a76.17,76.17,0,0,1-13.59-5.18c-7.58-3.48-14.8-7.8-22.55-10.81-11-4.27-21.17-3.11-29,1.9q0-35,0-70c0-7.33,1.18-13.82,6.59-17.81,4.15-3,8-1.62,12,.7q60.55,35.64,121.12,71.2,37.11,21.78,74.24,43.55C314.1,242.65,316.23,246.82,314.41,252.73Z"/><path class="cls-1" d="M455.32,254.83H397.17l-7.83,24.6H350.19l53.24-156.57h45.63l53.23,156.57H463.15Zm-10.74-33.55-18.34-57.49L407.9,221.28Z"/><path class="cls-1" d="M629.78,176.54c0,29.75-23.93,53.68-54.79,53.68H551.5v49.21H515.71V122.86H575C605.85,122.86,629.78,146.8,629.78,176.54Zm-35.78,0c0-11.4-8-20.13-19-20.13H551.5v40.26H575C586,196.67,594,188,594,176.54Z"/><path class="cls-1" d="M786.36,201.15c0,44.28-32.88,78.28-76.05,78.28H647.68V122.86h62.63C753.48,122.86,786.36,156.86,786.36,201.15Zm-34.45,0c0-26.84-17-43.84-41.6-43.84H683.47V245h26.84C734.91,245,751.91,228,751.91,201.15Z"/><path class="cls-1" d="M904.9,245v34.44H806.49V122.86h97.29v34.45h-61.5v25.94h55.91v34H842.28V245Z"/><path class="cls-1" d="M373.38,333l-3.64-9.39h-12L354.1,333h-3.85l11.84-30.43h3.44L377.34,333Zm-4.79-12.77-3.4-9.18-1.45-4.54c-.41,1.66-.85,3.17-1.3,4.54L359,320.19Z"/><path class="cls-1" d="M401.45,333.38a9.8,9.8,0,0,1-7.65-3c-1.82-2-2.74-4.9-2.74-8.66s.93-6.75,2.77-8.82,4.48-3.1,7.89-3.1a15.76,15.76,0,0,1,3.28.35,10.6,10.6,0,0,1,2.69.88l-1.14,3.11a14.46,14.46,0,0,0-4.91-1.08,5.94,5.94,0,0,0-5.08,2.17q-1.63,2.16-1.64,6.45a10.44,10.44,0,0,0,1.64,6.32,5.69,5.69,0,0,0,4.85,2.18,14.18,14.18,0,0,0,5.91-1.32v3.31A12.66,12.66,0,0,1,401.45,333.38Z"/><path class="cls-1" d="M438.1,333l-.73-3.23h-.16a9.66,9.66,0,0,1-3.39,2.89,10.55,10.55,0,0,1-4.26.76,7.45,7.45,0,0,1-5.27-1.77,6.43,6.43,0,0,1-1.91-5q0-6.93,10.93-7.26l3.85-.14v-1.35a5.57,5.57,0,0,0-1.11-3.82,4.62,4.62,0,0,0-3.59-1.24,10.64,10.64,0,0,0-3.41.54,28.78,28.78,0,0,0-3,1.2l-1.14-2.79a17.16,17.16,0,0,1,3.75-1.44,16.55,16.55,0,0,1,4-.51c2.75,0,4.79.6,6.13,1.82s2,3.15,2,5.81V333Zm-7.69-2.59a6.89,6.89,0,0,0,4.92-1.69,6.27,6.27,0,0,0,1.79-4.8v-2.05l-3.35.14a12.3,12.3,0,0,0-5.72,1.25,3.77,3.77,0,0,0-1.79,3.46,3.44,3.44,0,0,0,1.09,2.74A4.5,4.5,0,0,0,430.41,330.37Z"/><path class="cls-1" d="M467.26,333.38a8.31,8.31,0,0,1-6.88-3.07c-1.63-2.05-2.45-4.94-2.45-8.69s.82-6.62,2.46-8.71a8.3,8.3,0,0,1,6.91-3.13,8.21,8.21,0,0,1,7.05,3.36h.27c0-.27-.1-.83-.16-1.67s-.11-1.39-.11-1.69V300.7h3.73V333h-3l-.56-3h-.17A8,8,0,0,1,467.26,333.38Zm.6-3.09c2.27,0,3.92-.62,5-1.86s1.56-3.26,1.56-6.08v-.69c0-3.16-.52-5.42-1.58-6.77a6,6,0,0,0-5-2,5.12,5.12,0,0,0-4.46,2.29,11.49,11.49,0,0,0-1.57,6.54q0,4.23,1.56,6.41A5.23,5.23,0,0,0,467.86,330.29Z"/><path class="cls-1" d="M506.34,333.38a10.52,10.52,0,0,1-8-3.1q-2.91-3.11-2.91-8.53t2.72-8.72a9.07,9.07,0,0,1,7.33-3.25,8.85,8.85,0,0,1,6.84,2.77,10.66,10.66,0,0,1,2.56,7.5v2.26H499.25a8.68,8.68,0,0,0,2,5.88,6.87,6.87,0,0,0,5.29,2,17.45,17.45,0,0,0,3.46-.32,19.86,19.86,0,0,0,3.84-1.25v3.27a17.91,17.91,0,0,1-3.55,1.14A19.41,19.41,0,0,1,506.34,333.38Zm-.94-20.55a5.45,5.45,0,0,0-4.23,1.72,8.12,8.12,0,0,0-1.84,4.79h11.59a7.37,7.37,0,0,0-1.48-4.85A5.06,5.06,0,0,0,505.4,312.83Z"/><path class="cls-1" d="M560.89,333V318.3q0-5.39-4.62-5.39a5.64,5.64,0,0,0-4.66,1.85c-1,1.23-1.49,3.11-1.49,5.64V333H546.4V318.3a6.2,6.2,0,0,0-1.12-4,4.38,4.38,0,0,0-3.54-1.35,5.42,5.42,0,0,0-4.61,1.93c-1,1.29-1.46,3.4-1.46,6.33V333h-3.74V310.2h3l.56,3.11h.21a6.71,6.71,0,0,1,2.74-2.59,8.46,8.46,0,0,1,4-.94c3.57,0,5.89,1.28,7,3.82h.21a7.45,7.45,0,0,1,3-2.82,9.18,9.18,0,0,1,4.3-1q3.86,0,5.78,2c1.28,1.32,1.91,3.44,1.91,6.36V333Z"/><path class="cls-1" d="M582.68,304a2.24,2.24,0,0,1,3.72-1.8,2.22,2.22,0,0,1,.65,1.8,2.29,2.29,0,0,1-.65,1.81,2.24,2.24,0,0,1-1.52.58,2.27,2.27,0,0,1-1.57-.58A2.35,2.35,0,0,1,582.68,304Zm4,28.92H583V310.2h3.73Z"/><path class="cls-1" d="M614.37,333.38a9.83,9.83,0,0,1-7.65-3q-2.73-3-2.73-8.66t2.76-8.82c1.85-2.06,4.48-3.1,7.89-3.1a15.85,15.85,0,0,1,3.29.35,10.52,10.52,0,0,1,2.68.88l-1.14,3.11a14.46,14.46,0,0,0-4.91-1.08,5.94,5.94,0,0,0-5.08,2.17q-1.63,2.16-1.64,6.45a10.44,10.44,0,0,0,1.64,6.32,5.69,5.69,0,0,0,4.85,2.18,14.14,14.14,0,0,0,5.91-1.32v3.31A12.63,12.63,0,0,1,614.37,333.38Z"/><path class="cls-1" d="M679.25,311.57a8.49,8.49,0,0,1-3.17,7.12q-3.17,2.47-8.93,2.48h-3.49V333h-3.81V302.65h8Q679.26,302.65,679.25,311.57Zm-15.59,6.32h3.05c3,0,5.2-.49,6.55-1.46a5.38,5.38,0,0,0,2-4.7,5.18,5.18,0,0,0-1.88-4.37q-1.89-1.46-5.89-1.45h-3.86Z"/><path class="cls-1" d="M700.08,333h-3.73V300.7h3.73Z"/><path class="cls-1" d="M732.69,333l-.73-3.23h-.16a9.66,9.66,0,0,1-3.39,2.89,10.55,10.55,0,0,1-4.26.76,7.45,7.45,0,0,1-5.27-1.77,6.42,6.42,0,0,1-1.9-5q0-6.93,10.92-7.26l3.86-.14v-1.35a5.57,5.57,0,0,0-1.12-3.82,4.62,4.62,0,0,0-3.59-1.24,10.64,10.64,0,0,0-3.41.54,28.78,28.78,0,0,0-3,1.2l-1.14-2.79a17.05,17.05,0,0,1,3.76-1.44,16.41,16.41,0,0,1,4-.51c2.75,0,4.79.6,6.13,1.82s2,3.15,2,5.81V333ZM725,330.37a6.87,6.87,0,0,0,4.92-1.69,6.27,6.27,0,0,0,1.79-4.8v-2.05l-3.35.14a12.22,12.22,0,0,0-5.71,1.25,3.76,3.76,0,0,0-1.8,3.46,3.44,3.44,0,0,0,1.09,2.74A4.52,4.52,0,0,0,725,330.37Z"/><path class="cls-1" d="M761.4,330.33a11.41,11.41,0,0,0,1.7-.15,6.8,6.8,0,0,0,1.47-.33v2.86a8.12,8.12,0,0,1-1.61.45,11.56,11.56,0,0,1-2.2.22q-6.69,0-6.68-7V313.1h-3.21v-1.78l3.25-1.49,1.49-4.86h2.22v5.23h6.57v2.9h-6.57v13.14a4.38,4.38,0,0,0,.95,3A3.3,3.3,0,0,0,761.4,330.33Z"/><path class="cls-1" d="M790.94,313.1h-5.75V333h-3.73V313.1h-4v-1.74l4-1.28v-1.31c0-2.76.6-4.84,1.82-6.22s3.07-2.07,5.58-2.07a13.65,13.65,0,0,1,4.42.76l-1,2.93a11.06,11.06,0,0,0-3.38-.63,3.25,3.25,0,0,0-2.8,1.25,6.79,6.79,0,0,0-.91,3.94v1.47h5.75Z"/><path class="cls-1" d="M826.17,321.54q0,5.58-2.82,8.71a10,10,0,0,1-7.79,3.13,10.37,10.37,0,0,1-5.47-1.44,9.39,9.39,0,0,1-3.67-4.14,14.34,14.34,0,0,1-1.29-6.26c0-3.71.93-6.59,2.78-8.66a10,10,0,0,1,7.8-3.1,9.72,9.72,0,0,1,7.63,3.17C825.23,315.05,826.17,317.92,826.17,321.54Zm-17.18,0q0,4.29,1.69,6.52a6.65,6.65,0,0,0,9.94,0q1.7-2.24,1.7-6.52t-1.71-6.46a6,6,0,0,0-5-2.17Q809,312.91,809,321.54Z"/><path class="cls-1" d="M854,309.78a13.35,13.35,0,0,1,2.68.25l-.46,3.45a10.69,10.69,0,0,0-2.47-.3,6.08,6.08,0,0,0-3.34,1,6.75,6.75,0,0,0-2.42,2.75,8.57,8.57,0,0,0-.87,3.88V333h-3.73V310.2h3.07l.41,4.17h.17a9.76,9.76,0,0,1,3.09-3.42A6.9,6.9,0,0,1,854,309.78Z"/><path class="cls-1" d="M901.25,333V318.3q0-5.39-4.62-5.39a5.64,5.64,0,0,0-4.66,1.85q-1.5,1.85-1.5,5.64V333h-3.71V318.3a6.14,6.14,0,0,0-1.13-4,4.34,4.34,0,0,0-3.53-1.35,5.42,5.42,0,0,0-4.61,1.93q-1.47,1.94-1.47,6.33V333h-3.73V310.2h3l.56,3.11h.21a6.71,6.71,0,0,1,2.74-2.59,8.43,8.43,0,0,1,4-.94c3.57,0,5.89,1.28,7,3.82H890a7.45,7.45,0,0,1,3-2.82,9.18,9.18,0,0,1,4.3-1q3.86,0,5.78,2t1.91,6.36V333Z"/><path class="cls-1" d="M363.67,357.36h-5.73v19.8h-3.72v-19.8h-4v-1.74l4-1.28V353q0-4.14,1.81-6.21t5.57-2.06a13.54,13.54,0,0,1,4.4.76l-1,2.92a11,11,0,0,0-3.37-.62,3.22,3.22,0,0,0-2.79,1.24,6.64,6.64,0,0,0-.91,3.92v1.47h5.73Z"/><path class="cls-1" d="M395.42,365.77q0,5.57-2.81,8.68a10,10,0,0,1-7.78,3.12,10.29,10.29,0,0,1-5.45-1.43,9.34,9.34,0,0,1-3.66-4.13,14.25,14.25,0,0,1-1.28-6.24q0-5.53,2.77-8.63a9.88,9.88,0,0,1,7.77-3.09,9.72,9.72,0,0,1,7.62,3.15Q395.42,360.35,395.42,365.77Zm-17.14,0q0,4.28,1.69,6.5a6.62,6.62,0,0,0,9.91,0q1.69-2.22,1.69-6.5t-1.7-6.44a6,6,0,0,0-5-2.16Q378.28,357.17,378.28,365.77Z"/><path class="cls-1" d="M419.81,354.05a12.5,12.5,0,0,1,2.67.25l-.46,3.43a11.15,11.15,0,0,0-2.46-.29,6,6,0,0,0-3.33,1,6.77,6.77,0,0,0-2.41,2.74,8.6,8.6,0,0,0-.87,3.88v12.11h-3.72v-22.7h3.06l.41,4.16h.17a9.7,9.7,0,0,1,3.08-3.41A6.94,6.94,0,0,1,419.81,354.05Z"/><path class="cls-1" d="M478.27,361.76q0,7.49-4.08,11.44t-11.71,4h-8.41V346.94h9.3q7,0,11,3.87T478.27,361.76Zm-4,.12c0-3.84-.94-6.75-2.84-8.73s-4.76-3-8.59-3h-5v23.71H462Q474.27,373.89,474.26,361.88Z"/><path class="cls-1" d="M502,377.57a10.44,10.44,0,0,1-8-3.09q-2.91-3.09-2.91-8.5a13.16,13.16,0,0,1,2.71-8.7,9.06,9.06,0,0,1,7.32-3.23,8.82,8.82,0,0,1,6.82,2.76,10.57,10.57,0,0,1,2.54,7.47v2.26H495a8.72,8.72,0,0,0,2,5.87,6.86,6.86,0,0,0,5.27,2,17.45,17.45,0,0,0,3.46-.32,19.72,19.72,0,0,0,3.82-1.25v3.27a18.36,18.36,0,0,1-3.53,1.13A19.54,19.54,0,0,1,502,377.57Zm-.93-20.48a5.41,5.41,0,0,0-4.22,1.71,8.09,8.09,0,0,0-1.84,4.78H506.6a7.39,7.39,0,0,0-1.47-4.84A5,5,0,0,0,501.1,357.09Z"/><path class="cls-1" d="M539.63,377.16V362.65a6,6,0,0,0-1.23-4.13,5,5,0,0,0-3.85-1.35c-2.33,0-4,.64-5.08,1.93s-1.58,3.39-1.58,6.3v11.76h-3.72v-22.7h3l.55,3.1h.21a7,7,0,0,1,3-2.59,9.5,9.5,0,0,1,4.19-.92c2.79,0,4.85.67,6.21,2s2,3.45,2,6.3v14.78Z"/><path class="cls-1" d="M565.84,374.54a11.3,11.3,0,0,0,1.7-.15,7.46,7.46,0,0,0,1.47-.33v2.85a8.12,8.12,0,0,1-1.61.45,11.47,11.47,0,0,1-2.2.21q-6.66,0-6.65-7V357.36h-3.21v-1.78l3.25-1.49,1.49-4.84h2.21v5.21h6.55v2.9h-6.55v13.1a4.37,4.37,0,0,0,.94,3A3.31,3.31,0,0,0,565.84,374.54Z"/><path class="cls-1" d="M595.47,377.16l-.73-3.22h-.16a9.51,9.51,0,0,1-3.38,2.88,10.47,10.47,0,0,1-4.25.75,7.45,7.45,0,0,1-5.25-1.75,6.41,6.41,0,0,1-1.9-5q0-6.92,10.89-7.24l3.85-.14v-1.35a5.51,5.51,0,0,0-1.12-3.81,4.59,4.59,0,0,0-3.57-1.23,10.64,10.64,0,0,0-3.41.54,26.4,26.4,0,0,0-3,1.19L582.3,356a16.85,16.85,0,0,1,3.74-1.42,15.94,15.94,0,0,1,4-.52q4.11,0,6.12,1.82t2,5.79v15.46Zm-7.67-2.58a6.84,6.84,0,0,0,4.91-1.69,6.26,6.26,0,0,0,1.79-4.78v-2.05l-3.35.15a12,12,0,0,0-5.7,1.24,3.76,3.76,0,0,0-1.79,3.45,3.47,3.47,0,0,0,1.09,2.73A4.49,4.49,0,0,0,587.8,374.58Z"/><path class="cls-1" d="M616.84,377.16h-3.72V345h3.72Z"/><path class="cls-1" d="M668.28,377.16H651.39V346.94h16.89v3.35H655.19v9.42h12.32V363H655.19v10.79h13.09Z"/><path class="cls-1" d="M690.38,377.57a8.31,8.31,0,0,1-6.87-3.05c-1.62-2-2.44-4.93-2.44-8.67s.82-6.6,2.45-8.68a9.12,9.12,0,0,1,13.93.23h.27c-.05-.28-.1-.83-.17-1.67s-.1-1.39-.1-1.68V345h3.72v32.17h-3l-.56-3h-.16A8,8,0,0,1,690.38,377.57Zm.6-3.07q3.39,0,4.95-1.86t1.56-6.06v-.68q0-4.74-1.58-6.76a6,6,0,0,0-5-2,5.09,5.09,0,0,0-4.44,2.28,11.46,11.46,0,0,0-1.57,6.53q0,4.21,1.56,6.38A5.2,5.2,0,0,0,691,374.5Z"/><path class="cls-1" d="M719.81,354.46v14.62a5.86,5.86,0,0,0,1.23,4.08,5,5,0,0,0,3.82,1.34q3.5,0,5.08-1.95t1.6-6.26V354.46h3.74v22.7h-3.06l-.54-3h-.19a6.69,6.69,0,0,1-2.87,2.53,10,10,0,0,1-4.32.88q-4.09,0-6.17-2t-2.08-6.28V354.46Z"/><path class="cls-1" d="M759.49,377.57a9.79,9.79,0,0,1-7.63-3q-2.73-3-2.73-8.63t2.76-8.8q2.76-3.09,7.86-3.09a15.68,15.68,0,0,1,3.28.34,10.92,10.92,0,0,1,2.68.88l-1.14,3.1a14.36,14.36,0,0,0-4.9-1.08,6,6,0,0,0-5.06,2.16C753.52,360.9,753,363,753,365.9a10.34,10.34,0,0,0,1.64,6.29,5.67,5.67,0,0,0,4.83,2.18,14.1,14.1,0,0,0,5.9-1.32v3.31A12.73,12.73,0,0,1,759.49,377.57Z"/><path class="cls-1" d="M792.65,377.16l-.73-3.22h-.16a9.51,9.51,0,0,1-3.38,2.88,10.5,10.5,0,0,1-4.25.75,7.42,7.42,0,0,1-5.25-1.75,6.42,6.42,0,0,1-1.91-5q0-6.92,10.9-7.24l3.84-.14v-1.35a5.56,5.56,0,0,0-1.11-3.81,4.63,4.63,0,0,0-3.58-1.23,10.58,10.58,0,0,0-3.4.54,26.57,26.57,0,0,0-3,1.19L779.48,356a16.85,16.85,0,0,1,3.74-1.42,15.94,15.94,0,0,1,4-.52q4.11,0,6.12,1.82t2,5.79v15.46ZM785,374.58a6.82,6.82,0,0,0,4.9-1.69,6.22,6.22,0,0,0,1.79-4.78v-2.05l-3.35.15a12,12,0,0,0-5.69,1.24,3.76,3.76,0,0,0-1.79,3.45,3.43,3.43,0,0,0,1.09,2.73A4.49,4.49,0,0,0,785,374.58Z"/><path class="cls-1" d="M817.89,374.54a11.29,11.29,0,0,0,1.69-.15,7.46,7.46,0,0,0,1.47-.33v2.85a8.19,8.19,0,0,1-1.6.45,11.66,11.66,0,0,1-2.21.21q-6.65,0-6.65-7V357.36h-3.21v-1.78l3.25-1.49,1.49-4.84h2.21v5.21h6.55v2.9h-6.55v13.1a4.37,4.37,0,0,0,.94,3A3.31,3.31,0,0,0,817.89,374.54Z"/><path class="cls-1" d="M833.2,348.32a2.32,2.32,0,0,1,.63-1.8,2.28,2.28,0,0,1,1.57-.55,2.48,2.48,0,0,1,1.51,4.15,2.18,2.18,0,0,1-1.51.58,2.21,2.21,0,0,1-1.57-.58A2.32,2.32,0,0,1,833.2,348.32Zm4,28.84h-3.72v-22.7h3.72Z"/><path class="cls-1" d="M872.05,365.77q0,5.57-2.81,8.68a10,10,0,0,1-7.78,3.12,10.29,10.29,0,0,1-5.45-1.43,9.34,9.34,0,0,1-3.66-4.13,14.25,14.25,0,0,1-1.28-6.24q0-5.53,2.77-8.63a9.88,9.88,0,0,1,7.77-3.09,9.73,9.73,0,0,1,7.62,3.15Q872.05,360.35,872.05,365.77Zm-17.14,0q0,4.28,1.68,6.5a6.63,6.63,0,0,0,9.92,0q1.69-2.22,1.69-6.5t-1.7-6.44a6,6,0,0,0-5-2.16Q854.92,357.17,854.91,365.77Z"/><path class="cls-1" d="M901.32,377.16V362.65a6,6,0,0,0-1.23-4.13,5,5,0,0,0-3.85-1.35c-2.33,0-4,.64-5.08,1.93s-1.58,3.39-1.58,6.3v11.76h-3.72v-22.7h3l.56,3.1h.21a7,7,0,0,1,3-2.59,9.5,9.5,0,0,1,4.19-.92c2.79,0,4.85.67,6.2,2s2,3.45,2,6.3v14.78Z"/></svg>