<svg id="Layer_1" data-name="Layer 1" xmlns="http://www.w3.org/2000/svg" xmlns:xlink="http://www.w3.org/1999/xlink" viewBox="0 0 1000 500"><defs><style>.cls-1{fill:url(#linear-gradient);}.cls-2{fill:url(#linear-gradient-2);}.cls-3{fill:url(#linear-gradient-3);}.cls-4{fill:url(#linear-gradient-4);}.cls-5{fill:#003e2d;}</style><linearGradient id="linear-gradient" x1="215.89" y1="181.65" x2="105.62" y2="365.01" gradientUnits="userSpaceOnUse"><stop offset="0" stop-color="#007154"/><stop offset="1" stop-color="#003e2d"/></linearGradient><linearGradient id="linear-gradient-2" x1="244.62" y1="198.93" x2="134.36" y2="382.29" xlink:href="#linear-gradient"/><linearGradient id="linear-gradient-3" x1="218.37" y1="183.14" x2="108.11" y2="366.51" xlink:href="#linear-gradient"/><linearGradient id="linear-gradient-4" x1="221.98" y1="185.31" x2="111.72" y2="368.68" xlink:href="#linear-gradient"/></defs><title>LOGO 1.1</title><path class="cls-1" d="M134.31,366.8l-5.62,3.31c-10.38,6.1-18.19-.22-18.24-15.07q-.08-23.73,0-47.46c3.21,11.4,6.18,22.87,9.11,34.36a52.83,52.83,0,0,0,11.38,21.49A27.77,27.77,0,0,0,134.31,366.8Z"/><path class="cls-2" d="M187.79,333.23c.16.61.33,1.24.5,1.85q-11.35,6.68-22.71,13.33a65.76,65.76,0,0,0-.81-17.34c-1.22-7.8-2.83-15.56-3.6-23.4a42.2,42.2,0,0,1,1-13.1c1.11-5,5-6.5,8.59-2.82,3.91,4,7.68,8.85,9.59,14C183.6,314.64,185.31,324.06,187.79,333.23Z"/><path class="cls-3" d="M234.59,226.55c-4.81-8.29-11.94-10.16-20-5-3.93,2.52-7.5,5.6-11.22,8.44-13.59,10.36-28.22,12.21-43.8,5.11-8.28-3.77-16.32-8.08-24.7-11.61a23.47,23.47,0,0,0-10.9-1.76c-6.13.58-10.78,4.08-13.57,9.62v35.7c.4,1.4.83,2.78,1.26,4.17,4.16,13.13,8.5,26.21,12.26,39.45,3,10.42,4.64,21.21,8,31.49,1.84,5.67,5.4,11.06,9.15,15.8a7.42,7.42,0,0,0,3.75,2.68q4-2.33,8-4.69c1.48-2.63,2.77-5.71,2.71-8.54-.18-9.71-1-19.42-1.86-29.1-.74-8.43-1.55-16.85.93-25.11,3.22-10.76,12.84-13.47,21.11-5.93a20.23,20.23,0,0,1,5.2,6.54c2.83,6.6,5.8,13.27,7.46,20.23a176.64,176.64,0,0,1,3.09,19.21l13-7.64q5.67-3.33,11.35-6.66c2.41-7.81,5.25-15.51,8.2-23.19,4.91-12.73,9.93-25.45,13.88-38.48C241,246.9,240.23,236.29,234.59,226.55Zm-116.77,35c-7.8-8.94-3.48-30.29,8-33.27C117.64,238.17,117.27,249.62,117.82,261.54Z"/><path class="cls-4" d="M321.47,252.62a15,15,0,0,1-6.06,7.69q-46.07,27.35-92.28,54.31c.67-1.62,1.37-3.24,2.07-4.86,5.29-12.15,11-24.1,16.35-36.24,4.49-10.26,7.63-20.92,7.09-32.27-.44-8.87-2.82-17.18-8.51-24.22-7.47-9.27-17.7-11.67-28.33-6.23a100,100,0,0,0-13.34,8.88c-7.59,5.59-15.66,9.64-25.35,7.33A73.26,73.26,0,0,1,160,222c-7.29-3.34-14.24-7.5-21.69-10.39-10.62-4.11-20.36-3-27.94,1.82q0-33.67,0-67.37c0-7.05,1.14-13.3,6.35-17.13,4-2.93,7.71-1.57,11.51.67q58.24,34.27,116.51,68.49,35.7,21,71.42,41.9C321.16,242.93,323.22,247,321.47,252.62Z"/><path class="cls-5" d="M457,254.65H401.07l-7.53,23.66H355.89L407.1,127.7H451L502.2,278.31H464.55Zm-10.33-32.28-17.64-55.3-17.65,55.3Z"/><path class="cls-5" d="M624.85,179.34c0,28.61-23,51.64-52.71,51.64h-22.6v47.33H515.11V127.7h57C601.83,127.7,624.85,150.72,624.85,179.34Zm-34.43,0c0-11-7.74-19.37-18.28-19.37h-22.6V198.7h22.6C582.68,198.7,590.42,190.31,590.42,179.34Z"/><path class="cls-5" d="M775.47,203c0,42.6-31.63,75.3-73.16,75.3H642.07V127.7h60.24C743.84,127.7,775.47,160.4,775.47,203Zm-33.14,0c0-25.83-16.35-42.18-40-42.18H676.49v84.35h25.82C726,245.18,742.33,228.82,742.33,203Z"/><path class="cls-5" d="M889.51,245.18v33.13H794.84V127.7h93.6v33.13H829.26v25h53.8V218.5h-53.8v26.68Z"/><path class="cls-5" d="M378.2,329.81l-3.51-9H363.12l-3.47,9h-3.71l11.39-29.28h3.31L382,329.81Zm-4.61-12.29-3.27-8.83-1.4-4.37c-.4,1.6-.81,3.05-1.25,4.37l-3.31,8.83Z"/><path class="cls-5" d="M405.2,330.21a9.43,9.43,0,0,1-7.36-2.9c-1.76-1.94-2.64-4.71-2.64-8.33s.89-6.5,2.67-8.49,4.3-3,7.58-3a15.37,15.37,0,0,1,3.17.33,10.39,10.39,0,0,1,2.58.85l-1.1,3a14,14,0,0,0-4.73-1,5.73,5.73,0,0,0-4.88,2.09q-1.58,2.08-1.58,6.21a10,10,0,0,0,1.58,6.07,5.47,5.47,0,0,0,4.67,2.11,13.57,13.57,0,0,0,5.68-1.28V329A12.26,12.26,0,0,1,405.2,330.21Z"/><path class="cls-5" d="M440.45,329.81l-.7-3.11h-.16a9.17,9.17,0,0,1-3.26,2.78,10.13,10.13,0,0,1-4.1.73,7.17,7.17,0,0,1-5.06-1.7,6.19,6.19,0,0,1-1.84-4.78q0-6.68,10.51-7l3.71-.14v-1.3a5.39,5.39,0,0,0-1.07-3.68,4.46,4.46,0,0,0-3.45-1.19,10.39,10.39,0,0,0-3.28.52,26.72,26.72,0,0,0-2.91,1.16l-1.09-2.69a16.45,16.45,0,0,1,7.48-1.88q4,0,5.9,1.76t1.93,5.58v14.92Zm-7.4-2.5a6.65,6.65,0,0,0,4.74-1.62,6,6,0,0,0,1.72-4.62v-2l-3.23.14a11.62,11.62,0,0,0-5.49,1.2,3.61,3.61,0,0,0-1.73,3.33,3.31,3.31,0,0,0,1.05,2.63A4.33,4.33,0,0,0,433.05,327.31Z"/><path class="cls-5" d="M468.51,330.21a8,8,0,0,1-6.62-2.95q-2.36-3-2.36-8.36t2.37-8.38a8.79,8.79,0,0,1,13.43.22h.26c0-.26-.1-.8-.16-1.6s-.1-1.35-.1-1.63v-8.73h3.59v31H476l-.53-2.93h-.16A7.74,7.74,0,0,1,468.51,330.21Zm.58-3a5.91,5.91,0,0,0,4.77-1.79c1-1.19,1.51-3.14,1.51-5.85v-.66c0-3-.51-5.22-1.53-6.51a5.73,5.73,0,0,0-4.8-1.95,4.9,4.9,0,0,0-4.28,2.21,11,11,0,0,0-1.52,6.29c0,2.71.5,4.77,1.51,6.16A5,5,0,0,0,469.09,327.24Z"/><path class="cls-5" d="M506.1,330.21a10.1,10.1,0,0,1-7.73-3q-2.81-3-2.8-8.21a12.67,12.67,0,0,1,2.61-8.39,8.72,8.72,0,0,1,7.06-3.12,8.54,8.54,0,0,1,6.58,2.66,10.26,10.26,0,0,1,2.45,7.21v2.18h-15a8.4,8.4,0,0,0,1.9,5.66,6.59,6.59,0,0,0,5.08,1.94,17.76,17.76,0,0,0,3.33-.31,19.35,19.35,0,0,0,3.69-1.21v3.15a17,17,0,0,1-3.41,1.1A19.6,19.6,0,0,1,506.1,330.21Zm-.9-19.77a5.22,5.22,0,0,0-4.07,1.66,7.77,7.77,0,0,0-1.78,4.61H510.5a7.16,7.16,0,0,0-1.41-4.67A4.89,4.89,0,0,0,505.2,310.44Z"/><path class="cls-5" d="M558.58,329.81v-14.1q0-5.19-4.45-5.19a5.39,5.39,0,0,0-4.48,1.78q-1.44,1.77-1.44,5.42v12.09h-3.57v-14.1a5.9,5.9,0,0,0-1.09-3.89,4.19,4.19,0,0,0-3.4-1.3,5.18,5.18,0,0,0-4.43,1.86q-1.41,1.85-1.41,6.08v11.35h-3.59v-21.9h2.89l.54,3h.2a6.54,6.54,0,0,1,2.64-2.49,8.07,8.07,0,0,1,3.82-.9c3.43,0,5.67,1.23,6.7,3.67h.2a7.29,7.29,0,0,1,2.88-2.71,8.78,8.78,0,0,1,4.14-1c2.47,0,4.33.64,5.56,1.92s1.84,3.31,1.84,6.12v14.26Z"/><path class="cls-5" d="M579.54,302a2.24,2.24,0,0,1,.6-1.74,2.33,2.33,0,0,1,3,0,2.74,2.74,0,0,1,0,3.47,2.26,2.26,0,0,1-3,0A2.26,2.26,0,0,1,579.54,302Zm3.87,27.82h-3.59v-21.9h3.59Z"/><path class="cls-5" d="M610,330.21a9.43,9.43,0,0,1-7.36-2.9c-1.76-1.94-2.64-4.71-2.64-8.33s.89-6.5,2.67-8.49,4.3-3,7.58-3a15.37,15.37,0,0,1,3.17.33,10.39,10.39,0,0,1,2.58.85l-1.1,3a14,14,0,0,0-4.72-1,5.74,5.74,0,0,0-4.89,2.09q-1.58,2.08-1.58,6.21a10,10,0,0,0,1.58,6.07,5.47,5.47,0,0,0,4.67,2.11,13.57,13.57,0,0,0,5.68-1.28V329A12.26,12.26,0,0,1,610,330.21Z"/><path class="cls-5" d="M672.44,309.23a8.19,8.19,0,0,1-3.05,6.85c-2,1.59-4.9,2.38-8.6,2.38h-3.35v11.35h-3.67V300.65h7.72Q672.44,300.65,672.44,309.23Zm-15,6.08h2.93q4.35,0,6.31-1.41a5.17,5.17,0,0,0,2-4.51,5,5,0,0,0-1.82-4.21q-1.8-1.4-5.66-1.4h-3.71Z"/><path class="cls-5" d="M692.48,329.81h-3.59v-31h3.59Z"/><path class="cls-5" d="M723.84,329.81l-.69-3.11H723a9.26,9.26,0,0,1-3.26,2.78,10.17,10.17,0,0,1-4.1.73,7.18,7.18,0,0,1-5.07-1.7,6.19,6.19,0,0,1-1.83-4.78q0-6.68,10.51-7l3.71-.14v-1.3a5.34,5.34,0,0,0-1.08-3.68,4.46,4.46,0,0,0-3.45-1.19,10.39,10.39,0,0,0-3.28.52,26.54,26.54,0,0,0-2.9,1.16l-1.1-2.69a15.9,15.9,0,0,1,3.61-1.38,15.69,15.69,0,0,1,3.87-.5q4,0,5.9,1.76t1.94,5.58v14.92Zm-7.39-2.5a6.64,6.64,0,0,0,4.73-1.62,6,6,0,0,0,1.73-4.62v-2l-3.23.14a11.64,11.64,0,0,0-5.5,1.2,3.61,3.61,0,0,0-1.72,3.33,3.33,3.33,0,0,0,1,2.63A4.34,4.34,0,0,0,716.45,327.31Z"/><path class="cls-5" d="M751.46,327.28a11.82,11.82,0,0,0,1.64-.14,8,8,0,0,0,1.41-.32v2.75A7.61,7.61,0,0,1,753,330a10.83,10.83,0,0,1-2.13.21q-6.42,0-6.42-6.76V310.7h-3.09V309l3.13-1.44,1.44-4.66H748v5h6.32v2.79H748v12.65a4.21,4.21,0,0,0,.91,2.91A3.2,3.2,0,0,0,751.46,327.28Z"/><path class="cls-5" d="M779.88,310.7h-5.53v19.11h-3.59V310.7h-3.83V309l3.83-1.24v-1.25q0-4,1.75-6t5.37-2a12.86,12.86,0,0,1,4.25.74l-1,2.81a10.73,10.73,0,0,0-3.25-.6,3.1,3.1,0,0,0-2.69,1.2,6.4,6.4,0,0,0-.88,3.78v1.42h5.53Z"/><path class="cls-5" d="M813.78,318.82q0,5.37-2.72,8.38a9.58,9.58,0,0,1-7.5,3,9.91,9.91,0,0,1-5.26-1.39,9,9,0,0,1-3.53-4,13.89,13.89,0,0,1-1.24-6q0-5.34,2.68-8.33a9.56,9.56,0,0,1,7.49-3,9.38,9.38,0,0,1,7.35,3A11.94,11.94,0,0,1,813.78,318.82Zm-16.54,0q0,4.13,1.63,6.27a6.39,6.39,0,0,0,9.56,0q1.64-2.14,1.64-6.27t-1.65-6.21a5.77,5.77,0,0,0-4.82-2.09Q797.24,310.52,797.24,318.82Z"/><path class="cls-5" d="M840.58,307.51a12.34,12.34,0,0,1,2.57.24l-.44,3.31a10.94,10.94,0,0,0-2.37-.28,5.81,5.81,0,0,0-3.22,1,6.5,6.5,0,0,0-2.33,2.64,8.29,8.29,0,0,0-.84,3.74v11.69h-3.59v-21.9h3l.4,4h.15a9.4,9.4,0,0,1,3-3.29A6.64,6.64,0,0,1,840.58,307.51Z"/><path class="cls-5" d="M886,329.81v-14.1q0-5.19-4.45-5.19a5.39,5.39,0,0,0-4.48,1.78q-1.44,1.77-1.44,5.42v12.09h-3.57v-14.1a5.9,5.9,0,0,0-1.09-3.89,4.19,4.19,0,0,0-3.4-1.3,5.18,5.18,0,0,0-4.43,1.86q-1.41,1.85-1.41,6.08v11.35h-3.59v-21.9H861l.54,3h.2a6.6,6.6,0,0,1,2.64-2.49,8.07,8.07,0,0,1,3.82-.9c3.43,0,5.67,1.23,6.7,3.67h.2a7.29,7.29,0,0,1,2.88-2.71,8.78,8.78,0,0,1,4.14-1q3.72,0,5.56,1.92t1.84,6.12v14.26Z"/><path class="cls-5" d="M368.85,353.28h-5.51v19.05h-3.58V353.28h-3.82v-1.67l3.82-1.24v-1.25q0-4,1.74-6c1.16-1.32,2.95-2,5.36-2a13,13,0,0,1,4.23.74l-.95,2.8a10.94,10.94,0,0,0-3.24-.59,3.14,3.14,0,0,0-2.69,1.19,6.51,6.51,0,0,0-.87,3.78v1.41h5.51Z"/><path class="cls-5" d="M399.39,361.37q0,5.36-2.7,8.35a9.53,9.53,0,0,1-7.48,3,9.9,9.9,0,0,1-5.25-1.39,9.07,9.07,0,0,1-3.52-4,13.87,13.87,0,0,1-1.23-6q0-5.33,2.66-8.3a9.54,9.54,0,0,1,7.48-3,9.35,9.35,0,0,1,7.33,3Q399.4,356.16,399.39,361.37Zm-16.48,0c0,2.74.54,4.83,1.62,6.25a6.37,6.37,0,0,0,9.53,0c1.09-1.42,1.64-3.51,1.64-6.25s-.55-4.81-1.65-6.2a5.75,5.75,0,0,0-4.8-2.07Q382.91,353.1,382.91,361.37Z"/><path class="cls-5" d="M422.86,350.09a12.34,12.34,0,0,1,2.57.24l-.44,3.3a10.91,10.91,0,0,0-2.37-.27,5.79,5.79,0,0,0-3.21.95,6.49,6.49,0,0,0-2.32,2.64,8.33,8.33,0,0,0-.83,3.72v11.66h-3.58V350.49h2.94l.4,4h.16a9.32,9.32,0,0,1,3-3.28A6.71,6.71,0,0,1,422.86,350.09Z"/><path class="cls-5" d="M479.1,357.51q0,7.2-3.93,11t-11.26,3.81h-8.1V343.25h8.95q6.78,0,10.56,3.73T479.1,357.51Zm-3.86.12q0-5.55-2.73-8.4c-1.83-1.9-4.58-2.86-8.26-2.86h-4.78v22.82h4Q475.24,369.19,475.24,357.63Z"/><path class="cls-5" d="M502,372.73a10.1,10.1,0,0,1-7.71-3q-2.79-3-2.79-8.18a12.58,12.58,0,0,1,2.61-8.36,8.68,8.68,0,0,1,7-3.12,8.49,8.49,0,0,1,6.56,2.66,10.2,10.2,0,0,1,2.44,7.19v2.17h-15a8.37,8.37,0,0,0,1.89,5.64,6.55,6.55,0,0,0,5.07,1.93,17.67,17.67,0,0,0,3.32-.3,19.28,19.28,0,0,0,3.68-1.21v3.14a17.11,17.11,0,0,1-3.4,1.1A19.53,19.53,0,0,1,502,372.73ZM501.06,353a5.2,5.2,0,0,0-4.06,1.65,7.67,7.67,0,0,0-1.77,4.59h11.12a7.07,7.07,0,0,0-1.42-4.65A4.82,4.82,0,0,0,501.06,353Z"/><path class="cls-5" d="M538.12,372.33v-14a5.74,5.74,0,0,0-1.18-4,4.77,4.77,0,0,0-3.71-1.3q-3.36,0-4.88,1.86T526.83,361v11.32h-3.58V350.49h2.88l.54,3h.2a6.77,6.77,0,0,1,2.84-2.49,9.17,9.17,0,0,1,4-.89q4,0,6,2c1.3,1.3,1.94,3.32,1.94,6.07v14.22Z"/><path class="cls-5" d="M563.34,369.8a10.34,10.34,0,0,0,1.63-.14,7.89,7.89,0,0,0,1.41-.31v2.74a7.61,7.61,0,0,1-1.54.43,10.66,10.66,0,0,1-2.12.21q-6.39,0-6.4-6.75v-12.7h-3.08v-1.71l3.12-1.44,1.43-4.65h2.13v5h6.31v2.79h-6.31v12.6a4.21,4.21,0,0,0,.91,2.91A3.2,3.2,0,0,0,563.34,369.8Z"/><path class="cls-5" d="M591.84,372.33l-.7-3.1H591a9.11,9.11,0,0,1-3.25,2.77,10.06,10.06,0,0,1-4.08.73,7.21,7.21,0,0,1-5.06-1.69,6.18,6.18,0,0,1-1.82-4.78q0-6.64,10.48-7l3.7-.14v-1.29a5.31,5.31,0,0,0-1.08-3.67,4.44,4.44,0,0,0-3.44-1.18,10.37,10.37,0,0,0-3.27.51,26.36,26.36,0,0,0-2.89,1.16l-1.1-2.69a16.28,16.28,0,0,1,3.6-1.37,15.67,15.67,0,0,1,3.86-.5c2.64,0,4.6.59,5.89,1.75s1.92,3,1.92,5.57v14.88Zm-7.38-2.49a6.6,6.6,0,0,0,4.72-1.62,6,6,0,0,0,1.72-4.6v-2l-3.22.14A11.75,11.75,0,0,0,582.2,363a3.62,3.62,0,0,0-1.72,3.32,3.31,3.31,0,0,0,1,2.63A4.28,4.28,0,0,0,584.46,369.84Z"/><path class="cls-5" d="M612.4,372.33h-3.58V341.38h3.58Z"/><path class="cls-5" d="M661.88,372.33H645.63V343.25h16.25v3.22H649.29v9.07h11.85v3.19H649.29v10.38h12.59Z"/><path class="cls-5" d="M683.14,372.73a8,8,0,0,1-6.6-3q-2.35-2.94-2.35-8.33t2.36-8.35a8.75,8.75,0,0,1,13.39.22h.26c0-.27-.09-.8-.16-1.61s-.1-1.34-.1-1.62v-8.71h3.58v30.95h-2.88l-.54-2.93h-.16A7.7,7.7,0,0,1,683.14,372.73Zm.58-3q3.25,0,4.76-1.78c1-1.18,1.5-3.13,1.5-5.83v-.66q0-4.56-1.52-6.49a5.68,5.68,0,0,0-4.78-1.94,4.89,4.89,0,0,0-4.28,2.19,11,11,0,0,0-1.51,6.28,10.48,10.48,0,0,0,1.5,6.14A5,5,0,0,0,683.72,369.76Z"/><path class="cls-5" d="M711.46,350.49v14.06a5.63,5.63,0,0,0,1.18,3.93,4.78,4.78,0,0,0,3.67,1.28q3.36,0,4.89-1.87t1.53-6V350.49h3.6v21.84h-2.94l-.52-2.89h-.17a6.45,6.45,0,0,1-2.77,2.43,9.54,9.54,0,0,1-4.16.86q-3.93,0-5.93-1.89t-2-6v-14.3Z"/><path class="cls-5" d="M749.62,372.73a9.41,9.41,0,0,1-7.34-2.9c-1.75-1.93-2.62-4.69-2.62-8.3s.88-6.48,2.65-8.46,4.3-3,7.57-3a15.18,15.18,0,0,1,3.15.33,10.39,10.39,0,0,1,2.58.85l-1.1,3a13.82,13.82,0,0,0-4.71-1,5.72,5.72,0,0,0-4.87,2.07c-1,1.39-1.57,3.45-1.57,6.2a9.92,9.92,0,0,0,1.57,6.05,5.45,5.45,0,0,0,4.65,2.1,13.51,13.51,0,0,0,5.67-1.27v3.18A12.19,12.19,0,0,1,749.62,372.73Z"/><path class="cls-5" d="M781.52,372.33l-.7-3.1h-.15a9.22,9.22,0,0,1-3.26,2.77,10.06,10.06,0,0,1-4.08.73,7.18,7.18,0,0,1-5.05-1.69,6.19,6.19,0,0,1-1.83-4.78q0-6.64,10.48-7l3.7-.14v-1.29a5.31,5.31,0,0,0-1.08-3.67,4.42,4.42,0,0,0-3.44-1.18,10.37,10.37,0,0,0-3.27.51,26.36,26.36,0,0,0-2.89,1.16l-1.1-2.69a16.28,16.28,0,0,1,3.6-1.37,15.67,15.67,0,0,1,3.86-.5c2.64,0,4.6.59,5.89,1.75s1.93,3,1.93,5.57v14.88Zm-7.38-2.49a6.64,6.64,0,0,0,4.73-1.62,6,6,0,0,0,1.72-4.6v-2l-3.23.14a11.67,11.67,0,0,0-5.47,1.19,3.6,3.6,0,0,0-1.72,3.32,3.3,3.3,0,0,0,1,2.63A4.28,4.28,0,0,0,774.14,369.84Z"/><path class="cls-5" d="M805.8,369.8a10.24,10.24,0,0,0,1.63-.14,7.69,7.69,0,0,0,1.41-.31v2.74a7.61,7.61,0,0,1-1.54.43,10.63,10.63,0,0,1-2.11.21q-6.41,0-6.41-6.75v-12.7H795.7v-1.71l3.12-1.44,1.43-4.65h2.13v5h6.31v2.79h-6.31v12.6a4.21,4.21,0,0,0,.91,2.91A3.2,3.2,0,0,0,805.8,369.8Z"/><path class="cls-5" d="M820.54,344.59a2.15,2.15,0,0,1,3.57-1.73,2.14,2.14,0,0,1,.62,1.73,2.2,2.2,0,0,1-.62,1.73,2.28,2.28,0,0,1-3,0A2.27,2.27,0,0,1,820.54,344.59Zm3.86,27.74h-3.58V350.49h3.58Z"/><path class="cls-5" d="M857.91,361.37c0,3.57-.91,6.35-2.71,8.35a9.52,9.52,0,0,1-7.48,3,9.9,9.9,0,0,1-5.25-1.39,9.13,9.13,0,0,1-3.52-4,13.87,13.87,0,0,1-1.23-6q0-5.33,2.67-8.3a9.51,9.51,0,0,1,7.47-3,9.35,9.35,0,0,1,7.33,3A11.9,11.9,0,0,1,857.91,361.37Zm-16.49,0c0,2.74.54,4.83,1.62,6.25a6.39,6.39,0,0,0,9.54,0,10.22,10.22,0,0,0,1.63-6.25q0-4.11-1.64-6.2a5.78,5.78,0,0,0-4.81-2.07Q841.42,353.1,841.42,361.37Z"/><path class="cls-5" d="M886.07,372.33v-14a5.74,5.74,0,0,0-1.19-4,4.77,4.77,0,0,0-3.71-1.3c-2.24,0-3.86.62-4.88,1.86s-1.52,3.26-1.52,6.05v11.32h-3.58V350.49h2.88l.54,3h.2a6.77,6.77,0,0,1,2.84-2.49,9.17,9.17,0,0,1,4-.89q4,0,6,2t2,6.07v14.22Z"/></svg>