<svg id="Layer_1" data-name="Layer 1" xmlns="http://www.w3.org/2000/svg" xmlns:xlink="http://www.w3.org/1999/xlink" viewBox="0 0 250 250"><defs><style>.cls-1{fill:url(#linear-gradient);}.cls-2{fill:url(#linear-gradient-2);}.cls-3{fill:url(#linear-gradient-3);}.cls-4{fill:url(#linear-gradient-4);}</style><linearGradient id="linear-gradient" x1="130.59" y1="83.04" x2="54.79" y2="196.74" gradientUnits="userSpaceOnUse"><stop offset="0" stop-color="#007154"/><stop offset="1" stop-color="#003e2d"/></linearGradient><linearGradient id="linear-gradient-2" x1="146.93" y1="93.93" x2="71.13" y2="207.63" xlink:href="#linear-gradient"/><linearGradient id="linear-gradient-3" x1="130.27" y1="82.82" x2="54.47" y2="196.52" xlink:href="#linear-gradient"/><linearGradient id="linear-gradient-4" x1="130.12" y1="82.73" x2="54.33" y2="196.43" xlink:href="#linear-gradient"/></defs><title>ICONE 1.1</title><path class="cls-1" d="M73.55,198.47,70,200.55c-6.52,3.83-11.43-.13-11.46-9.47q0-14.91,0-29.81c2,7.16,3.88,14.37,5.72,21.59a33.34,33.34,0,0,0,7.15,13.5A17,17,0,0,0,73.55,198.47Z"/><path class="cls-2" d="M107.13,177.38c.11.39.21.78.32,1.17l-14.26,8.37a41.29,41.29,0,0,0-.52-10.9c-.76-4.9-1.77-9.77-2.26-14.7a26.87,26.87,0,0,1,.61-8.23c.7-3.16,3.17-4.07,5.4-1.77a26.65,26.65,0,0,1,6,8.82C104.5,165.7,105.57,171.62,107.13,177.38Z"/><path class="cls-3" d="M136.52,110.36c-3-5.2-7.49-6.38-12.55-3.13-2.46,1.58-4.71,3.51-7,5.3-8.53,6.51-17.72,7.66-27.5,3.21-5.2-2.37-10.25-5.08-15.51-7.3a14.68,14.68,0,0,0-6.85-1.1,10.4,10.4,0,0,0-8.53,6v22.43c.26.88.52,1.75.8,2.62,2.61,8.25,5.33,16.46,7.7,24.78,1.86,6.54,2.91,13.33,5,19.78a33.15,33.15,0,0,0,5.75,9.93,4.61,4.61,0,0,0,2.35,1.68c1.67-1,3.34-2,5-2.95a11.11,11.11,0,0,0,1.7-5.36c-.11-6.1-.62-12.2-1.16-18.28-.47-5.3-1-10.58.58-15.77,2-6.76,8.06-8.47,13.26-3.73a12.73,12.73,0,0,1,3.26,4.11,80.79,80.79,0,0,1,4.69,12.7,111.11,111.11,0,0,1,1.94,12.07l8.16-4.79,7.12-4.19c1.52-4.9,3.3-9.74,5.15-14.56,3.08-8,6.24-16,8.72-24.18A23.72,23.72,0,0,0,136.52,110.36Zm-73.33,22c-4.9-5.62-2.18-19,5-20.9C63.08,117.67,62.84,124.86,63.19,132.35Z"/><path class="cls-4" d="M191.09,126.74a9.37,9.37,0,0,1-3.81,4.84q-28.92,17.17-57.95,34.11c.42-1,.86-2,1.3-3.05,3.32-7.64,6.93-15.14,10.27-22.77,2.82-6.44,4.79-13.14,4.45-20.27-.28-5.57-1.77-10.79-5.34-15.22-4.7-5.82-11.12-7.33-17.8-3.91a63.88,63.88,0,0,0-8.38,5.58c-4.76,3.51-9.83,6.06-15.91,4.6a46,46,0,0,1-8.22-3.13c-4.57-2.1-8.94-4.71-13.62-6.53-6.67-2.58-12.79-1.88-17.55,1.15q0-21.17,0-42.33c0-4.43.72-8.35,4-10.76,2.51-1.84,4.84-1,7.23.42q36.59,21.54,73.18,43,22.42,13.16,44.85,26.32C190.9,120.66,192.19,123.18,191.09,126.74Z"/></svg>